<svg width="1503" height="1502" viewBox="0 0 1503 1502" fill="none" xmlns="http://www.w3.org/2000/svg">
<g clip-path="url(#clip0_298_148)">
<path d="M-401.329 1001.28L-500.087 985.088L-493.185 1084.96L-592.744 1096.01L-559.015 1190.42L-651.952 1227.87L-594.024 1309.64L-673.305 1370.84L-595.591 1433.9L-655.403 1514.23L-563.461 1554.04L-599.451 1647.48L-500.204 1661.03L-509.67 1760.75L-410.4 1746.98L-392.615 1845.55L-300.77 1805.45L-256.978 1895.61L-179.391 1832.3L-112.934 1907.24L-55.2805 1825.36L28.9631 1879.56L62.3315 1785.13L157.98 1814.63L164.752 1714.7L264.869 1717.34L244.401 1619.28L341.491 1594.75L295.304 1505.87L382.183 1456.08L313.672 1382.92L383.986 1311.51L298.305 1259.63L346.693 1171.86L250.194 1145.01L273.061 1047.49L172.93 1047.66L168.66 947.556L72.2446 974.657L41.1677 879.52L-44.3467 931.65L-99.9683 848.294L-168.201 921.672L-244.283 856.391L-290.239 945.397L-381.022 903.211L-401.329 1001.28Z" fill="#B99041"/>
<path d="M577.419 277.988C571.869 297.096 500.164 454.903 569.296 600.086C653.471 776.674 895.916 741.147 874.99 644.005C852.688 539.921 579.676 612.003 702.996 873.931C758.679 992.32 948.221 1058.46 948.221 1058.46" stroke="#B99041" stroke-width="40" stroke-miterlimit="10" stroke-linecap="round"/>
<path d="M972.299 969.939L1061.95 1093.61L916.736 1143.1" stroke="#B99041" stroke-width="40" stroke-miterlimit="10" stroke-linecap="round" stroke-linejoin="round"/>
</g>
<defs>
<clipPath id="clip0_298_148">
<rect width="1080" height="1080" fill="white" transform="matrix(-0.82398 0.566619 0.566619 0.82398 890.685 0.065918)"/>
</clipPath>
</defs>
</svg>
